<svg width="55" height="54" viewBox="0 0 55 54" fill="none" xmlns="http://www.w3.org/2000/svg">
<path d="M2.67969 18.5152C2.67969 14.7449 5.73609 11.6885 9.50635 11.6885H11.0979C13.4868 11.6885 15.7019 10.4397 16.9386 8.39586L18.2112 6.29263C19.4479 4.24874 21.663 3 24.0519 3H30.3741C32.763 3 34.9781 4.24874 36.2148 6.29263L37.4874 8.39586C38.7241 10.4397 40.9392 11.6885 43.3281 11.6885H44.9197C48.6899 11.6885 51.7464 14.7449 51.7464 18.5152V43.96C51.7464 47.7303 48.69 50.7867 44.9197 50.7867H9.50636C5.73609 50.7867 2.67969 47.7303 2.67969 43.96V18.5152Z" stroke="white" stroke-width="4.55111" stroke-linecap="round" stroke-linejoin="round"/>
<path d="M27.2121 39.926C33.3709 39.926 38.3636 35.0636 38.3636 29.0654C38.3636 23.0673 33.3709 18.2048 27.2121 18.2048C21.0533 18.2048 16.0605 23.0673 16.0605 29.0654C16.0605 35.0636 21.0533 39.926 27.2121 39.926Z" stroke="white" stroke-width="4.55111" stroke-linecap="round" stroke-linejoin="round"/>
</svg>
