<svg width="59" height="52" viewBox="0 0 59 52" fill="none" xmlns="http://www.w3.org/2000/svg">
<path d="M27.7297 7.35288L29.4377 9.36079L31.1436 7.35114C32.4069 5.86292 33.9895 4.67909 35.7733 3.88773C37.5548 3.09745 39.4912 2.71889 41.4388 2.78009C45.4912 2.94074 49.3158 4.69918 52.0772 7.67195C54.8403 10.6467 56.314 14.5953 56.1755 18.6545L56.1742 18.6926V18.7308C56.1742 26.6734 50.4362 31.8105 44.4045 37.0463C43.657 37.6927 42.9016 38.3518 42.1545 39.015L42.1486 39.0203L39.8263 41.0968L39.7986 41.1216L39.7717 41.1473C36.9501 43.8443 33.9893 46.3915 30.9014 48.7786C30.4639 49.0447 29.9614 49.1858 29.4485 49.1858C28.9359 49.1858 28.4335 49.0448 27.9961 48.7789C25.005 46.4636 22.134 43.997 19.3942 41.3887L19.3689 41.3646L19.3429 41.3414L16.7562 39.028L16.7534 39.0255C16.0861 38.4308 15.4152 37.8474 14.7617 37.2792C14.7025 37.2277 14.6434 37.1763 14.5844 37.125C8.22543 31.594 2.72291 26.6521 2.72291 18.7308V18.6926L2.72161 18.6545C2.5831 14.5953 4.05672 10.6467 6.81992 7.67195C9.58061 4.69989 13.4041 2.94158 17.4554 2.7802C19.3988 2.72455 21.3301 3.10567 23.107 3.8956C24.8872 4.68699 26.4671 5.86848 27.7297 7.35288Z" stroke="#FAFAFA" stroke-width="4.48"/>
</svg>
