<svg width="53" height="52" viewBox="0 0 53 52" fill="none" xmlns="http://www.w3.org/2000/svg">
<path d="M3.0332 26.0476V34.1141C3.0332 40.7753 4.66536 43.4782 6.78857 45.6736C8.9866 47.799 11.6944 49.4333 18.354 49.4333H34.4791C41.1387 49.4333 43.8465 47.7966 46.0445 45.6736C48.1677 43.4782 49.7999 40.7776 49.7999 34.1141V17.9859C49.7999 11.3246 48.1677 8.61943 46.0445 6.42395C43.8465 4.3033 41.1387 2.66663 34.4791 2.66663H18.354C11.6944 2.66663 8.9866 4.30096 6.78857 6.42395C4.66536 8.62177 3.0332 11.3246 3.0332 17.9859V26.0476Z" stroke="white" stroke-width="4.6" stroke-linecap="round" stroke-linejoin="round"/>
<path d="M34.1076 32.7878C34.6136 32.4842 34.6136 31.751 34.1076 31.4475L23.3828 25.0126C22.8619 24.7001 22.1992 25.0753 22.1992 25.6828V38.5525C22.1992 39.16 22.8619 39.5352 23.3828 39.2227L34.1076 32.7878Z" fill="white"/>
<path d="M1.5 17.2333H50.5667" stroke="white" stroke-width="4.6"/>
<path d="M15.3008 3.43335L22.2008 17.2333" stroke="white" stroke-width="4.6"/>
<path d="M29.8672 3.43335L37.5339 17.2333" stroke="white" stroke-width="4.6"/>
</svg>
